<?xml version="1.0" encoding="utf-8"?>
<!-- Generator: Adobe Illustrator 18.0.0, SVG Export Plug-In . SVG Version: 6.00 Build 0)  -->
<!DOCTYPE svg PUBLIC "-//W3C//DTD SVG 1.1//EN" "http://www.w3.org/Graphics/SVG/1.1/DTD/svg11.dtd">
<svg version="1.1" id="Layer_1" xmlns="http://www.w3.org/2000/svg" xmlns:xlink="http://www.w3.org/1999/xlink" x="0px" y="0px"
	 viewBox="0 0 200 200" enable-background="new 0 0 200 200" xml:space="preserve">
<path fill="#212121" d="M134.7,95.1c-3.2,0-6.4,0.4-9.3,1.3l0,0c0,0-0.1,0-0.1,0c-0.6,0-1-0.4-1-1c0-0.2,0.1-0.4,0.2-0.6l0,0
	c6.6-6.4,10.7-15.4,10.7-25.3c0-19.6-15.9-35.4-35.4-35.4S64.2,49.9,64.2,69.5c0,9.7,4,18.6,10.3,25l0,0c0.2,0.2,0.3,0.4,0.3,0.7
	c0,0.6-0.4,1-1,1c0,0-0.1,0-0.1,0c-2.7-0.7-5.5-1-8.4-1c-19.6,0-35.4,15.9-35.4,35.4S45.8,166,65.3,166c15.8,0,29.2-10.4,33.7-24.6
	c0.1-0.4,0.5-0.7,0.9-0.7c0.5,0,0.8,0.3,0.9,0.7l0,0c4.6,14.3,17.9,24.6,33.7,24.6c19.6,0,35.4-15.9,35.4-35.4
	S154.2,95.1,134.7,95.1z"/>
</svg>
